<?xml version="1.0" encoding="utf-8"?>
<!-- Generator: Adobe Illustrator 27.0.0, SVG Export Plug-In . SVG Version: 6.00 Build 0)  -->
<svg version="1.1" id="Layer_1" xmlns="http://www.w3.org/2000/svg" xmlns:xlink="http://www.w3.org/1999/xlink" x="0px" y="0px"
	 viewBox="0 0 512 512" style="enable-background:new 0 0 512 512;" xml:space="preserve">
<style type="text/css">
	.st0{clip-path:url(#SVGID_00000132050064007677947450000015882249537758475422_);}
	.st1{fill:#009966;}
	.st2{fill:#009966;stroke:#000000;stroke-width:0.25;}
	.st3{fill:#FFFFFF;}
</style>
<g>
	<defs>
		<circle id="SVGID_1_" cx="256" cy="256" r="255.19"/>
	</defs>
	<clipPath id="SVGID_00000143612972851210561620000004790037644161248141_">
		<use xlink:href="#SVGID_1_"  style="overflow:visible;"/>
	</clipPath>
	<g style="clip-path:url(#SVGID_00000143612972851210561620000004790037644161248141_);">
		<rect x="-147" y="-6.31" class="st1" width="794.41" height="529.61"/>
		<path d="M647.53,523.42h-794.66V-6.44h794.66V523.42z M-146.88,523.17h794.16V-6.19h-794.16V523.17z"/>
	</g>
	<g style="clip-path:url(#SVGID_00000143612972851210561620000004790037644161248141_);">
		<path class="st2" d="M250.2,258.49"/>
	</g>
</g>
<g>
	<path class="st3" d="M69.12,171.76c2.75-7.68,2.91-14.3-0.17-11.84c-2.63,2.11-4.21-0.03-2.21-2.49c2.65-3.25,6.23-4.33,6.83,1.57
		C74.02,163.46,70.81,169.01,69.12,171.76z"/>
	<path class="st3" d="M92.03,213.33c0.85,9.58,3.41,27.54,3.54,33.7c0.13,6.18,1.02,4.46,2.65,1.02c1.63-3.44,1.2-7.25,0.89-12.25
		c-0.34-5.29-0.69-14.2-1.69-26.01c1.93-1.75,3.97-4.26,4.82-5.98c1.99-4.04,2.47-3.61,3.35-0.39c1.73,6.35,8.05,10.53,16.55,4.44
		c7.85-5.62,4.58-17.35,0.96-30.06c3.05,0.57,3.95-1.84,2.29-5c-0.97-1.84-2.41-3.61-3.72-5.18c-1.31-1.57-2.8-2.89-4.04-1.27
		c-1.24,1.63-2.45,2.95-3.23,3.92c-0.78,0.98-0.73,2.09,0.35,4.73c3.04,7.44,5.27,15.48,5.85,19.94c0.58,4.46-1,5.29-3.88,5.35
		c-2.87,0.06-6.97-0.71-8.55-7.06c-1.57-6.36-2.19-9.46-1.96-13.62c0.23-4.16,0.65-7.07-2.32-11.32c-2.97-4.25-3.3-3.69-4.02-1.35
		c-0.75,2.41-1.65,5.71-0.7,9.67c1.4,5.88,2.26,11.09,3,14.43c0.53,2.39-1.75,7.45-5.43,10.08c-0.66-7.85-2.03-18.56-2.69-27.2
		c4.76-1.38,2.13-7.54-1.37-14.17c-2.7-5.12-3.9-3.11-5.75,0.12s-0.5,4.68,0.99,7.2c-1.07,2.26,0.6,5.42,1.36,11.15
		c0.51,3.84,1.24,14.53,1.92,23.78c-3.69,0-5.77-2.4-7.16-5.62c-2.86-6.65-2.12-12.91-0.77-16.77c1.36-3.86,2.59-10.14,0.32-11.68
		c-2.27-1.55-5.08,0.3-6.93,3.22c-3.09,4.86-6.22,11.61-6.49,18.95c-0.1,2.72-1.04,8.49-2.28,10.59c-1.23,2.1-2.96,2.38-4.93-0.77
		c-3.14-5.05-4.03-17.92-3.85-24.47c0.09-3.26-0.85-3.95-1.89-0.1c-3.44,12.8,0.56,26.51,3.41,32.36c2.84,5.85,6.79,4.48,9.42-0.2
		c4-7.11,2.38-13.6,5.99-24.06c2.31-6.69,2.87-1.66,2.18,2.32C76.35,196.38,76.99,213.56,92.03,213.33z"/>
	<path class="st3" d="M103.43,157.5c-0.78,2.16-0.29,4.86,1.03,6.54c1.31,1.68,3.92,1.79,5.31,0.35c1.46-1.52,1.48-1.83,2.65,0.23
		c0.92,1.62,3.51,1.3,4.27-0.35c0.71-1.53,1.48-2.82,0.69-4.62c-0.78-1.79-0.95-1.18-1.39,0.92c-0.69,3.35-3.84,2.43-3.92-1.62
		c-0.09-4.05-0.83-2.02-2.08,0.81c-1.73,3.92-4.27,3-4.27-0.46C105.73,156.53,104.71,153.97,103.43,157.5z"/>
	<path class="st3" d="M60.13,237.46c7.62-9.15,17.62-14.01,22.51-15.52c3.33-1.03,4.91-2.32,4.97,0.71
		c0.07,3.03-0.05,3.13-2.82,3.91c-6.19,1.73-18.84,8.1-23.08,11.39C59.61,239.58,57.02,241.2,60.13,237.46z"/>
	<path class="st3" d="M65.61,254.44c0.45,2.54,0.25,4.31,0.28,5.59c0.04,1.76-0.97,3.72-1.63,6.11c-3.11,11.25,1.64,16.9,4.27,12.69
		c2.63-4.21,3.77-3.61,3.66-0.4c-0.39,11.51-11.24,12.22-12.08,2.81c-1.35-15.13,2.05-17.49,3.19-22.76
		C64.02,255.11,65.24,252.37,65.61,254.44z"/>
	<path class="st3" d="M121.85,231.45c-1.12,0.39-2.16,0.73-3.08,1.04c-4.54,1.52-5.55-0.47-5.29-3.35c0.26-2.88,0.75-3.85,3.78-2.48
		C118.54,227.24,120.3,229.05,121.85,231.45l7.14-2.76c-1.21-2.9-3.12-5.26-6.22-8.22c-4.78-4.58-8.55-4.82-12.55,0.91
		c-3.93,5.62-3.69,6.9-3.37,12c0.32,5.11-0.71,6.83,3.16,8.24c3.86,1.41,5.52,0.84,7.88,0.05c1.79-0.6,4.36-1.47,7.18-2.49
		c0.52,2.79,0.24,5.53-1.47,7.64c-9.65,11.87-25.01,20.35-31.69,12.5c-3.61-4.24-5.19-10.91-4.08-18.93c0.9-6.52-1.2-3.65-1.94-1.24
		c-2.39,7.72-3.11,18.92,0.1,24.5c4.51,7.84,11.74,11.25,23.14,6.11c11.39-5.14,22.49-14.11,22.01-26.67
		c-0.09-2.3-0.2-4.29-0.36-6.06c1.27-0.51,3.08-1.93,4.27-2.45c0.23,4.27-0.12,9.55,0.05,13.97c0.5,13.42-4.66,17.5-9.51,21.35
		c-6.69,5.31-15.7,8.77-23.55,9.93c-18.13,2.67-22.5-9-22.19-24.55c0.05-2.59,0.98-3.97,0.9-7.69c-0.14-6.6-0.97-5.46-2.96,1.18
		c-1.93,6.45-4.37,21.38,1.85,33.6c6.23,12.22,27.81,8.75,44.47,0.72c16.66-8.03,18.47-23.19,17.72-38.3
		c-0.2-4-0.44-8.24-0.72-12.78c0.53-0.38,0.96-0.74,1.27-1.08c2.29,7.62,13.4,5.64,16.9,1.23c1.77-2.23,1.81-2.55,3.58-0.12
		c2.42,3.35,10.53,4.62,12.56-0.32c2.02-4.94,1.68-9.7,1.18-13.53c-0.51-3.82-1.33-3.51-3.84-1.54c-2.51,1.97-0.51,2.44-0.2,5.12
		c1.15,9.93-7.62,9.23-8.66-1.19c-0.63-6.33-1.65-3.92-2.54-1c-3.77,12.39-14.54,14.77-13.46,0.37c0.3-4.03-2.29-2.83-3.86-1.2
		c-1.12,1.17-2.32,2.24-3.57,3.24c-0.78-11.64-1.76-25.08-2.93-40.96c3.12,3.93,6.22-0.61,4.05-5.04
		c-1.67-3.41-4.08-11.26-5.6-15.54c-1.53-4.28-2.3-2.99-5.58,0.6c-3.28,3.59-2.62,4.53-1.26,8.18c-0.32,4.69,0.41,9.15,1.46,18.5
		c0.75,6.65,2.85,20.45,3.99,37.85c-1.66,0.91-3.97,2.42-5.59,3.13L121.85,231.45z"/>
	<path class="st3" d="M159.83,250.04c0.58,2.01,0.34,6.17-0.47,8.1c-1.01,2.41-0.01,3.48,1.61,0.39c1.64-3.12,2.52-6.76,1.91-10.48
		c-0.47-2.84-0.39-3.51-2.87-4.62c-2.47-1.12-3.29,0.6-4.2,2.75C154.73,248.73,156.25,251.81,159.83,250.04z"/>
	<path class="st3" d="M167,191.56c-3.05,4.1-5.59,9.76-1.15,13.45c2.44,2.03,7.5-0.48,9.33-4.51c1.83-4.03,1.09-4.75-2.1-1.07
		c-4.36,5.05-8.94,0.51-4.29-6.46C172.01,188.13,170.26,187.18,167,191.56z"/>
	<g>
		<path class="st3" d="M173.97,167.91c0.56-1.17,1.03-2.35,1.4-3.53c0.48-1.56-1.02-3.01-2.09-0.59
			C172.55,165.43,172.26,166.76,173.97,167.91l-2.99,5.04c-3.34-2.8-3.49-7.18-2.06-10.99c3.02-8.05,13.74-7.1,10.94,3.44
			c-0.47,1.75-1.11,3.74-2.1,5.86c1.38,2.22,0.67,4.85-2.36,4.23c-3.7,5.62-10.14,11.75-21.8,16.99c-5.22,2.35-6.06,0.45-2.12-2.03
			c7.76-4.88,14.89-10.98,19.5-17.51L173.97,167.91z"/>
	</g>
	<path class="st3" d="M186.21,169.01c-4.27,11.84-4.06,23.37,4.62,33.09c5.09,5.71,8.89,2.99,11.16-2.97
		c2.27-5.96,3.74-11.9,5.42-15.77c1.68-3.87,2.97-3.07,2.57,0.58c-0.8,7.37-1.12,19.38,6.32,23.85c7.44,4.47,18.88-3.3,22.71-11.21
		c12.15,16.06,22.73,8.49,23.92-6.8c0.38-4.8-1.87-15.24-3.21-18.25c-1.34-3.01-0.39-3.19,1.41-1.47c1.79,1.72,5.18,2.93,3.47-2.31
		c-1.71-5.24-4.01-8.06-6.77-10.4c-2.76-2.34-3.38-1.05-4.46,0.73c-1.08,1.78-0.82,2.33-2.39,3.8c-1.57,1.47-1.23,2.26-0.05,5.27
		c4.56,11.57,9.04,28.63,1.62,30.24c-6.52,1.42-10.8-12.86-11.06-19.41c-0.34-8.46-1.29-15.63-2.99-20.23
		c-1.7-4.6-2.41-5.35-3.73-2.8c-0.92,1.78-1.21,3.06-2.29,5s-0.09,2.47,0.68,6.03c4.08,18.77,3.67,27.11-4.85,32.09
		c-8.52,4.98-13.03,0.14-13.16-5.77c-0.13-5.91-0.22-12.95,0.46-18.24c0.69-5.29,1.82-6.26,0.01-8.94c-1.81-2.68-3.29-1.82-5.84,1.7
		c-5.33,7.36-10.6,19.83-12.39,25.83c-1.79,6-5.75,3.88-8.24-1.2c-2.9-5.9-2.58-16.89-1.61-21.17
		C188.5,166.02,187.97,164.12,186.21,169.01z"/>
	<path class="st3" d="M222.22,158.59c-1.69,1.98-1.87,2.22-0.15,4.41c1.48,1.89,3.9,7.92,3.23,13.85c-0.33,2.87,0.3,5.47,1.47,0.65
		c1.18-4.82,0.87-11.52-0.49-15.49C224.92,158.06,223.46,157.13,222.22,158.59z"/>
	<g>
		<path class="st3" d="M260.88,227.55c1.92-0.51,3.86-0.99,5.81-1.42c5.68-1.26,2.52-1.76-1.37-4.23c-3.89-2.47-5.38-2.44-5.11,0.32
			C260.37,223.82,260.32,225.43,260.88,227.55l-6.98,2.01c-4.49-6.59-1.57-11.45,1.86-16.4c4.34-6.27,11.2-4.28,19.2,1.29
			c8,5.58,4.78,14.38-2.8,18.81c-2.03,1.18-4.48,2.22-7.18,3.21c0.6,2-0.35,2.54-2.83,0.99c-6.8,2.3-16.02,5.83-22.23,9.11
			c7.68,0.69,39.56-0.05,45.94-0.61c6.38-0.56,5.34,0.52,3.53,5.89c-1.8,5.37-3.9,4.84-9.46,5.8c-8.49,1.46-20.78,5.11-29.85,8.93
			c-9.08,3.82-5.95,10.31,3.28,13.74c7.28,1.97,6.34,2.74,5.15,6.92c-1.19,4.18-1.1,5.12-9.83,3.72
			c-21.44-3.42-29.3-15.3-32.65-24.57c-13.51,18.92-26.34,29.18-38.58,26.09c-6.12-1.54-9.14-6.98-9.71-14.05
			c-8.43,4.11-18.33,7.51-30.93,11.41c-2.96,0.91-5.38-0.41-1.54-2.31c8.53-4.21,21.94-11.49,32.82-18.95
			c1.02-5.02,3.32-11.47,5.83-16.38c1.43-2.8,2.09-1.75,2.14,0.59c0.04,1.94-0.55,6.67-0.41,10.18c2.11-1.6,4.68-3.42,6-4.62
			c7.44-6.77,15.73-10.87,10.04-21.66c-2.44-4.63-4.22-8.01-5.12-10.33c-4.73-1.82-3.29-4.4-1.26-8.92
			c2.03-4.52,2.89-5.63,7.23-0.58c6.12,7.11,6.82,10.29,2.55,9.75c6.76,17.11,5.12,25.76-5.19,36.11
			c-4.91,4.93-9.95,8.83-15.59,12.18c-0.57,4.58,1.19,9.05,9.84,7.76c10.98-1.64,23.57-16.3,28.9-27.52
			c-2.37-9.34-7.7-25.91-10.95-34.43c-1.69-4.44-0.03-6.18,1.39-9.62c1.42-3.44,2.44-5.59,4.24-0.94c1.8,4.65,7.58,16.03,10.43,29.6
			c2.85,13.57,2.24,25.3,9.2,31.76c3.1,2.88,7.16,4.55,11.35,5.7c-3.06-9.13,3.47-15.86,12.44-19.2c-5.41-4.96-13.8-4.25-22.95-4.65
			c-7.08-0.31-6.09-1.02-4.31-7.23c1.79-6.22,4.07-7.01,9.13-9.03c6.75-2.7,13.71-5.31,20.85-7.52L260.88,227.55z"/>
	</g>
	<path class="st3" d="M229.95,216.69c-0.56,3.63,0.34,6.06,1.66,7.85c1.31,1.78,4.02,1.56,4.77-0.44c0.92-2.46,1.39-2.77,3.08-0.92
		c1.84,2.01,7.98,0.36,4.93-8.92c-1.25-3.81-1.89-3.03-1.85,1.38c0.06,6.59-2.06,6.54-4.4,0.24c-0.9-2.43-1.99-2.47-2.12,0.69
		c-0.25,6.15-2.8,6.93-4.26,0.92C231.08,214.67,230.56,212.73,229.95,216.69z"/>
	<path class="st3" d="M308.81,158.66c-1.13,1.99-1.86,3.71,0.33,5.32c2.11,1.55,5.29,5.69,3.96,10.67c-1,3.73-0.09,6.52,2.31,1.12
		c2.44-5.48,0.49-12.19-1.95-16.41C311.31,155.62,310.05,156.5,308.81,158.66z"/>
	<path class="st3" d="M328.67,255.7c-2.25-11.94-13.13-31.1-29.36-56.14c-0.53-6.52-0.87-12.79-0.88-18.3
		c2.29,2.51,4.02,1.03,3.15-2.3c-1.63-6.26-4.08-11.35-6.78-18.23c-1.18-3.01-4.03-3.68-5.58,0.6c-1.81,4.99-1.95,6.11,0.36,9.42
		c-0.13,3.95,1.05,10.27,1.51,16.05c-2.77-4.16-6.58-9.59-9.56-14.01c4.51,1.82,7.25,0.48,3.33-3.91
		c-3.93-4.39-9.57-8.96-13.04-12.08c-3.47-3.12-5.14-1.17-4.65,1.8c0.49,2.97,0.54,5.1,0.37,7.45c-0.16,2.35,0.46,3.88,4,5.24
		c6.83,9.15,13.9,18.57,20.25,27.97c0.88,8.09,2.4,16.86,3.23,24.01c1.96,16.89,5.21,39.06,2.54,48.71
		c-1.98,7.14,0.16,10.28,3.44-0.65c3.28-10.93,2.89-21.18,0.95-37.44c-0.78-6.49-1.15-14.42-1.95-21.87
		c11.14,17.43,21.19,33.83,25.73,45.19C328.16,263.3,330.35,264.61,328.67,255.7z"/>
	<path class="st3" d="M310.95,188.65c0.89,3.11,2.46,4.78,3.11,0.89c0.57-3.42,1.61-4.51,2.22-0.79c0.61,3.72,2.73,3.14,3.4-0.29
		c0.67-3.42,1.91-5.47,2.42-1.54c0.51,3.93,0.11,5.22-0.29,6.4c-0.4,1.18-2.29,2.61-4.03,0.94c-1.74-1.67-2.4-1.64-3.73-0.35
		c-2.82,2.72-3.98,0.78-4.43-2.89C309.22,187.84,310.37,186.64,310.95,188.65z"/>
	<path class="st3" d="M268.09,279.04c2.78-1.62,4.09-2.8,6.15-3.81c2.05-1,3.66-0.75,2.16,3.95c-1.65,5.15-0.96,6.84,2.52,5.54
		c3.17-1.19,5.06-2.34,7.91-3.52c2.33-0.96,4.98-1.13,1.32,1.89c-2.98,2.46-7.21,5.5-9.61,6.12c-5.4,1.39-8.01-0.79-6.98-4.96
		c1.03-4.18,1.88-5.59-1.37-4.28C266.38,281.47,266.66,279.87,268.09,279.04z"/>
	<path class="st3" d="M334.88,177.38c1.96,1.87,4.52,2.03,3.15-1.99c-1.36-4.02-2.32-8.9-3.69-13.34c-1.37-4.44-2.25-5.49-3.91-3.33
		c-1.66,2.17-3.13,3.05-4.37,4.57c-1.25,1.52-1.51,4.41,0.04,6.94c5.71,40.3,6.09,58.06,6.88,72.91c0.8,14.84,2.83,21.81-6.34,31.82
		c-10.16,11.08-16.39,13.62-20.78,14.77c-5.67,1.49-7.66,3.92,0.69,3.46c12.7-0.69,14.31-1.15,24.66-12.95
		c5.73-6.53,8.63-14.88,8.21-34.69C338.69,211.07,334.11,196.04,334.88,177.38z"/>
	<path class="st3" d="M353.23,178.7c3.66,2.05,7.52,3.03,4.66-1.38c-2.86-4.41-5.15-11.61-6.96-16.89
		c-1.82-5.29-2.19-4.99-5.12-0.53c-4.54,6.91-0.62,13.48,0.46,21.58c3.8,28.47,7.45,57.47,8.46,65.1c1.14,8.6,2.46,14.16,0.25,23.59
		c-0.66,2.82,0.45,3.74,2.24,0.27c7.37-14.22,2.31-26.49,1.5-34.54c-1.22-12.12-5.43-44.62-6.34-57.7"/>
	<path class="st3" d="M371.66,200.4c-0.59,2.46-3.96,2.44-3.69-0.23c0.26-2.67,0.06-2.3,0.01-4.43c-0.05-2.13,2.49-3.35,3.91-1.47
		c1.42,1.89,4.18,7.6,5.08,9.82c0.9,2.22,1.42,1.69,1.35-1.41c-0.07-3.51-0.66-6.65-0.37-8.85c0.18-1.39,0.89-3,2.68-4.32
		c1.78-1.32,2.74-1.66,3.53,0.67c0.8,2.33,2.35,2.55,1.58,4.45c-1.08,2.67-3.69-2.79-5.08,0.92c-1.01,2.68-0.22,10.26-0.27,12.71
		c-0.05,2.45-1.1,6.06-3.05,1.88C376.11,207.5,374.05,202.91,371.66,200.4z"/>
	<path class="st3" d="M370.73,232.95c-0.09-1.62,0.71-2.31,4.04-4.96c2.54-2.03,9.92-7.46,12.43-9.86c2.51-2.4,4.38-4.57,4.76-1.59
		c0.38,2.97,0.89,4.12-2.07,5.56c-2.95,1.45-10.64,6.11-13.16,8.08C374.22,232.15,370.85,235.03,370.73,232.95z"/>
	<path class="st3" d="M443.47,254.21c-0.3-3.94-1.45-7.44-6.28-14.67c-4.64-6.95-9.09-13.4-13.32-19.43
		c-1.41-16.05-3.17-33.14-3.28-42.11c2.28,2.03,3.84,0.08,2.8-3.42c-1.03-3.49-3.15-12.87-4.67-16.68c-1.52-3.8-3.1-2.97-5.1,0.43
		c-2,3.4-3.25,5.02-2.07,7.71c0.6,15.33,2.9,30.29,5.2,44.01c-4.25-5.94-8.24-11.44-11.93-16.59c-0.36-5.89-0.72-11.82-1.05-17.67
		c2.44,1.86,3.39,1.52,2.19-2.12c-1.2-3.65-4.07-11.26-5.43-14.74s-2.26-3.57-4.07-0.76c-2.88,4.48-3.67,7.53-1.24,11.74
		c0.33,3.94,0.65,7.73,0.96,11.37c-2.24-3.24-4.33-6.35-6.25-9.34c2.37,1.23,4.24-0.94,1.64-3.23c-2.61-2.29-7.59-6.44-9.79-9.38
		c-2.19-2.94-4.53-2.89-4.47-0.12c0.05,2.56,0.32,5.11-0.06,7.24c-0.38,2.14-0.35,4.32,2.73,8.04c6.19,7.49,12.1,15.18,17.55,22.53
		c2.24,26.41,3.55,43.47,3.05,54.25c-0.29,6.29-2.56,9.96-5.94,11.1c-3.39,1.14-6.84-1.13-10.14-5.96
		c-5.75-8.42-7.89-6.86-12.35,0.48c-4.32,7.12-7.39,12.94-9.63,17.89c-2.24,4.95-5.98,9.08-9.31,2.75
		c-3.33-6.32-3.7-13.55-3.59-18.67c0.1-5.11-0.64-9.15-2.58-1.01c-4.69,19.7-1.95,23.82,3.37,28.26c6.72,5.61,8.83,6.18,12.38,1.23
		c6.83-9.52,8.78-18.08,12.72-22.85c3.08-3.72,3.31-0.82,4.71,0.96c3.94,5.03,7.6,6.87,13.16,7.81c5.56,0.95,15.68-3.74,14.86-22.26
		c-0.5-11.23-1.47-26.41-2.5-42.74c5.4,7.49,10.14,14.21,13.96,19.39c1.71,10.74,2.87,20.25,2.39,27.95
		c-0.56,8.96,1.26,8.92,3.08-0.28c0.72-3.61,0.5-11.29-0.13-20.59c7.13,9.49,11.36,15.74,14.3,20.5
		C442.64,260.62,444.31,265.41,443.47,254.21z"/>
	<path class="st3" d="M428.16,166.18c-1.55,2.43-1.37,3.06,0.45,6.06c1.82,3,3.55,8.87,3.48,13.51c-0.06,4.63,1.52,3.96,2.39-0.21
		c0.87-4.17,0.54-11.99-1.81-17.7C430.32,162.14,429.4,164.24,428.16,166.18z"/>
	<path class="st3" d="M449.75,174.51c2.94,2.81,4.51,1.82,2.5-2.61c-2.01-4.43-4.03-9.18-6.04-13.61c-2.01-4.43-2.63-3.46-5.12-0.21
		c-2.49,3.25-2.76,5.49-1.76,7.39c5.06,42.39,7.33,64.4,8.04,77.16c1.03,18.51-3.39,29.06-21.49,41.04
		c-5.99,3.96-12.6,8.58,1.39,5.08c13.99-3.49,28.88-12.73,27.34-51.39C453.23,202.87,448.75,187.63,449.75,174.51z"/>
	<path class="st3" d="M412.45,275.8c-1.06,2.74-6.54,0.62-4.37-2.46c1.66-2.36,5.53-2.67,7.18-0.63c4.08,5.08-1.98,11.86-4.82,13.84
		c-2.83,1.98-5.04,1.88-0.84-1.74C412.27,282.52,414.1,278.16,412.45,275.8z"/>
	<path class="st3" d="M106.35,396.39c88.37,1.04,193.82,2.21,283.59,0.3c9.76-0.21,13.91,1.22,14.74,9.66
		c0.71,7.19-1.46,13.05-6.44,13.37c-4.13,0.27-8.78-4.8-6.14-13.32c-113.17,3.39-197.11,3.72-223.48,3.3
		C142.26,409.29,114.95,410.36,106.35,396.39z"/>
	<path class="st3" d="M378.97,413.7c-0.03-1.48-2.11-2.4-3.03-2.38c-0.92,0.02-2.95,1.02-2.92,2.5l-12.2,0.26
		c-0.37-0.78-1.08-1.69-2.21-2.98l-0.37-17.32c3.25-4.06,2.84-4.48,0.4-7.98c-1.18-1.68-2.03-3.54-4.31,0.09
		c-2.27,3.61-2.68,4.04,0.74,7.96l0.37,17.32c-3.25,4.06-2.82,4.47-0.4,7.98c2.43,3.53,3.21,1.64,4.31-0.09
		c0.45-0.7,0.82-1.28,1.11-1.79l12.63-0.27c0.03,1.48,2.11,2.44,3.03,2.42c0.92-0.02,2.95-1.06,2.92-2.54l18.24-0.39l-0.07-3.17
		L378.97,413.7z"/>
</g>
</svg>
