<?xml version="1.0" encoding="utf-8"?>
<!-- Generator: Adobe Illustrator 26.1.0, SVG Export Plug-In . SVG Version: 6.00 Build 0)  -->
<svg version="1.1" id="Слой_1" xmlns="http://www.w3.org/2000/svg" xmlns:xlink="http://www.w3.org/1999/xlink" x="0px" y="0px"
	 viewBox="0 0 40 40" style="enable-background:new 0 0 40 40;" xml:space="preserve">
<style type="text/css">
	.st0{fill:#FFFFFF;}
</style>
<g>
	<path d="M11.85,38.8h-1.43V25.94h5.11v1.31h-3.68v4.37h2.96v1.31h-2.96V38.8z"/>
	<path d="M22.22,38.8h-1.45l-0.48-2.74h-2.98l-0.48,2.74h-1.34l2.39-12.87h1.93L22.22,38.8z M18.78,27.57l-1.25,7.24h2.54
		L18.78,27.57z"/>
	<path d="M29.31,38.69h0.28V40h-0.42c-0.92,0-1.5-0.41-1.73-1.23c-0.37,0.15-0.8,0.22-1.29,0.22c-0.94,0-1.67-0.28-2.18-0.83
		c-0.51-0.55-0.76-1.34-0.76-2.35v-6.89c0-1.02,0.25-1.8,0.76-2.34c0.51-0.54,1.23-0.82,2.18-0.82c0.96,0,1.69,0.27,2.2,0.82
		c0.51,0.55,0.76,1.33,0.76,2.34v6.89c0,1.03-0.26,1.82-0.77,2.37C28.49,38.52,28.81,38.69,29.31,38.69z M26.15,37.68
		c1.02,0,1.53-0.59,1.53-1.78v-7.08c0-1.18-0.51-1.77-1.53-1.77c-1,0-1.51,0.59-1.51,1.77v7.08C24.64,37.09,25.15,37.68,26.15,37.68
		z"/>
</g>
<circle cx="20" cy="10.47" r="10.47"/>
<g>
	<g>
		<path class="st0" d="M20.31,13.76h-1.25v-0.74c0-0.93,0.39-1.94,1.16-3.03c0.45-0.65,0.77-1.19,0.95-1.62
			c0.18-0.43,0.27-0.9,0.27-1.42c0-1.14-0.49-1.71-1.47-1.71c-0.98,0-1.47,0.59-1.47,1.76v1.16h-1.36V7.1c0-1,0.24-1.78,0.73-2.33
			c0.48-0.55,1.2-0.83,2.14-0.83c0.94,0,1.66,0.27,2.14,0.81c0.48,0.54,0.73,1.31,0.73,2.3c0,0.58-0.1,1.12-0.31,1.64
			C22.35,9.2,22,9.77,21.51,10.41c-0.44,0.6-0.75,1.09-0.93,1.46c-0.18,0.37-0.27,0.77-0.27,1.19V13.76z M20.4,16.99h-1.45v-1.86
			h1.45V16.99z"/>
	</g>
</g>
</svg>
