<?xml version="1.0" encoding="UTF-8"?>
<svg width="80px" height="70px" viewBox="0 0 80 70" version="1.1" xmlns="http://www.w3.org/2000/svg" xmlns:xlink="http://www.w3.org/1999/xlink">
    <title>elm-logo-footer</title>
    <g id="elm-logo-footer" stroke="none" stroke-width="1" fill="none" fill-rule="evenodd">
        <path d="M67.5899192,28.1231118 C68.653673,27.937751 69.7477791,27.9050883 70.8251813,28.0451296 C75.1700312,28.6230553 78.8473358,32.1416448 79.7387542,36.4269912 C80.2215379,38.5551704 80.0153872,40.8160417 79.2836745,42.8325552 C78.5407579,44.852335 77.3368542,46.6430676 75.9111144,48.1524927 C75.4226269,48.6697882 74.6082094,48.6920397 74.0920179,48.2023033 C73.5758263,47.7127711 73.5536224,46.8966119 74.0421099,46.3795205 C74.0457766,46.3756418 74.0549434,46.3660471 74.0588138,46.3623725 C75.3175145,45.0758704 76.3358419,43.5909423 76.9661089,41.9735262 C77.5825239,40.3569266 77.7695262,38.5970194 77.4228182,36.9240767 C76.7976439,33.5541025 73.9074601,30.6963203 70.5155479,30.1912733 C69.6722041,30.0679716 68.8123602,30.0775662 67.9627016,30.2069922 C67.1173208,30.3672436 66.2894587,30.6401813 65.4986712,31.0219266 C63.9507076,31.8168551 62.4927823,33.0241502 61.3123047,34.4027203 C58.9193678,37.1400588 57.6176851,40.8444174 58.0338569,44.4562998 C58.2391928,46.2507069 58.860293,47.9963242 59.8751574,49.4806398 C60.8806513,50.9731211 62.3000762,52.1673511 63.9278925,52.952685 C65.6718215,53.7045395 67.6035675,54.7801631 68.9142133,56.4414697 C70.2800635,58.0674599 70.9036082,60.3477247 70.5406037,62.4403831 C70.2059144,64.5424321 69.0684189,66.4168629 67.547752,67.7999241 C66.7803907,68.4925775 65.9372507,69.0823435 64.9708684,69.5102248 C64.0154862,69.9325944 62.8690276,70.1704197 61.7484397,69.8552246 C60.6327408,69.5285976 59.7625078,68.6699768 59.2754463,67.7188798 C58.7735142,66.7612502 58.5571782,65.7107361 58.5302889,64.6718581 C58.4873069,62.6065546 59.2412236,60.4677601 60.8307432,59.0467285 C61.0338383,58.8650422 61.3453051,58.8830067 61.5264,59.0865361 C61.7060689,59.2884325 61.6865131,59.6007695 61.4874921,59.78266 C60.1729759,60.9838308 59.5290605,62.8447882 59.591802,64.6418492 C59.6260247,65.5404818 59.8313606,66.4364605 60.2446805,67.1960724 C60.6516855,67.9589507 61.2956008,68.5405509 62.0586843,68.7569413 C62.8293049,68.9627163 63.6922045,68.7989945 64.4931773,68.4317433 C65.2972057,68.06735 66.0596781,67.5214746 66.7147973,66.8998626 C68.0329802,65.6564344 68.9771585,63.9953319 69.2169207,62.2409365 C69.4744054,60.4900116 68.9488434,58.6996873 67.7911809,57.3650076 C67.2250814,56.6897063 66.5316654,56.1091268 65.7667486,55.6240856 C65.3815401,55.3846272 64.9832945,55.1629291 64.5709931,54.9624618 L64.5709931,54.9624618 L63.2595325,54.3708586 C61.3831945,53.506726 59.7075072,52.1471411 58.5117517,50.4366362 C57.3043849,48.7349095 56.554135,46.7290114 56.2838168,44.671057 C56.0110542,42.6090199 56.2341125,40.5008466 56.84462,38.5247532 C57.4742759,36.5541716 58.4875106,34.7060751 59.8154715,33.1329578 C60.4685536,32.3368044 61.1988404,31.6074055 61.9829056,30.9486396 C62.7502669,30.2761963 63.6414816,29.6807144 64.5681412,29.1787295 C65.5155788,28.6981795 66.5320728,28.3388898 67.5899192,28.1231118 Z M52.1603141,1.18865215 C52.317779,0.389640822 53.09227,-0.129696129 53.8893725,0.0283096886 C54.6864749,0.186315506 55.2049072,0.962054663 55.0470349,1.76106599 C55.0433682,1.77984705 55.0378681,1.80413993 55.0335903,1.82271684 C54.5088431,3.98743737 53.8875391,6.09254848 53.2169382,8.16846729 C54.6844378,8.72720362 56.1122147,9.42720614 57.4458793,10.3456405 C58.6664869,11.1854802 59.7976675,12.2219085 60.6931601,13.4690113 C61.6006713,14.7048863 62.2299198,16.1679711 62.5232567,17.6808666 C63.1180789,20.7452404 62.289402,23.8147178 60.9117368,26.3587339 C59.5208308,28.9309217 57.5740105,31.1070742 55.3711315,32.9114843 C53.1556227,34.7042583 50.6683698,36.1436627 48.0136704,37.1351798 C46.0523869,37.8919338 43.972139,38.3463536 41.8980024,38.5843831 C41.8083716,38.8240456 41.7152779,39.0626875 41.6260546,39.3025542 C41.2133458,40.4214559 40.8079704,41.5423989 40.4101322,42.6655876 L40.4101322,42.6655876 L54.7932169,50.8475943 C55.1042763,51.0247894 55.2132592,51.4208247 55.0366459,51.7323452 C54.8602363,52.0440699 54.4648425,52.1534899 54.1539868,51.9764989 L54.1539868,51.9764989 L54.1480794,51.9730285 L40.0355164,43.748152 C39.8311991,44.3360806 39.6228076,44.9227844 39.4252126,45.5125503 C38.7647971,47.5962265 38.0675107,49.6921512 37.7089877,51.8164517 L37.7089877,51.8164517 L37.706747,51.8317623 C37.6745614,52.0220225 37.4940777,52.1506319 37.3040198,52.1183775 C37.1190545,52.0871438 36.9927567,51.9144398 37.0157755,51.7296914 C37.2348955,49.9860021 37.6552495,48.3120866 38.1030701,46.6481053 L38.48959,45.222873 C38.6849442,44.5461426 38.8912986,43.8734951 39.0945974,43.1998269 L39.0945974,43.1998269 L31.2199262,38.6107174 C30.9762936,38.470676 30.8917555,38.1591555 31.031498,37.9147977 C31.1298881,37.7425019 31.3172978,37.6500257 31.5026705,37.659212 L31.5026705,37.659212 C34.2156298,37.7302534 36.9567007,37.6681943 39.6484746,37.4173039 C40.0949986,37.3777004 40.5345967,37.3160495 40.9754169,37.259094 C42.1730058,33.6108744 43.403595,29.9771488 44.6280731,26.3452606 C46.033646,22.1719881 47.4439041,18.0023901 48.755161,13.8148276 C49.1703143,12.4764735 49.5765045,11.1340364 49.9731205,9.79017041 C49.6148012,9.69789828 49.255056,9.61011727 48.8936812,9.53009365 C46.3123161,8.97299045 43.6451906,8.67657644 40.9933431,8.64513859 C30.3439895,8.42527778 19.7867112,12.5205681 11.5504614,19.2429603 C9.49628797,20.9291723 7.57798653,22.790538 5.95098499,24.843797 C5.13880831,25.8683851 4.40281775,26.9448253 3.80982896,28.0578068 C3.22213652,29.1585399 2.7756125,30.3519533 2.72916748,31.3565355 C2.7132784,31.8405559 2.79027934,32.4156236 2.95772585,32.8335021 C3.12354271,33.2717947 3.37939772,33.6270016 3.74505038,33.9230073 C4.47492975,34.5209389 5.64766643,34.831847 6.86929261,34.9206487 C9.33413782,35.0878409 12.0497454,34.6013708 14.5168314,33.8942233 L14.5168314,33.8942233 L14.5657209,33.8799334 C15.2082103,33.6960015 15.8777926,34.0683563 16.0615356,34.7120157 C16.2420193,35.3444472 15.8847186,36.0036214 15.2636184,36.2012307 C13.8547862,36.6480973 12.5013621,36.9657421 11.075826,37.2064253 C9.65884553,37.4381264 8.20764245,37.5779636 6.69879051,37.4954903 C5.21051289,37.3962773 3.56517779,37.1151739 2.10338199,36.0107663 C1.38531757,35.4630537 0.791513956,34.677924 0.459065411,33.8350221 C0.117042675,32.97436 -0.0049773482,32.1622835 0.000154591673,31.2744705 C0.0840422681,29.5178296 0.69760539,28.09394 1.37044702,26.7708964 C2.06243704,25.4543854 2.8807249,24.2517856 3.76623582,23.1190023 C5.54031326,20.8548646 7.57798653,18.8608067 9.75418004,17.0517013 C14.1130856,13.4390024 19.1055176,10.6443 24.4106386,8.71189298 C29.7175929,6.78703916 35.3889776,5.79470547 41.0513993,5.94413733 C43.8837306,6.02497751 46.6924319,6.38038853 49.4636512,7.02445617 C49.8686192,7.12203599 50.2737908,7.22839391 50.6781477,7.34026367 C51.2420065,5.29904898 51.7516794,3.25701772 52.1535918,1.22172314 L52.1535918,1.22172314 Z M40.4950777,38.7111552 C40.2463524,38.7285072 39.9972197,38.7464717 39.7495129,38.7583119 C37.6900431,38.867732 35.6440178,38.8693651 33.5963629,38.7895457 L33.5963629,38.7895457 L39.4225644,42.1037891 C39.7537907,41.0295945 40.0925542,39.9580538 40.4364103,38.8883503 C40.4555586,38.8291492 40.4757256,38.7703563 40.4950777,38.7111552 Z M52.4194284,10.5473327 C51.9584412,11.8956898 51.488491,13.2391475 51.0107999,14.5791349 C49.5109111,18.7401589 47.9220026,22.8534137 46.3398164,26.9664643 C45.0489301,30.3176575 43.7570253,33.6647678 42.4907874,37.0194314 C44.1797157,36.709544 45.8254582,36.2604319 47.4045888,35.581456 C52.2827415,33.5620844 56.6662956,29.9922553 59.0376397,25.3770156 C60.1991725,23.0889934 60.7644572,20.5055779 60.2665993,18.1328368 C59.7909452,15.7527465 58.181055,13.7417448 56.0781957,12.3617457 C54.9584227,11.6135657 53.7192778,11.0242081 52.4194284,10.5473327 Z" fill="#FFFFFF"></path>
    </g>
</svg>